<svg width="48" height="48" viewBox="0 0 48 48" fill="none" xmlns="http://www.w3.org/2000/svg">
<mask id="mask0_3726_3020" style="mask-type:luminance" maskUnits="userSpaceOnUse" x="0" y="0" width="48" height="48">
<path d="M48 0H0V48H48V0Z" fill="white"/>
</mask>
<g mask="url(#mask0_3726_3020)">
<path d="M46.7481 41.5112C46.4992 39.9458 43.8336 11.5589 43.4 8.44205C42.9476 5.18885 42.3048 5.14178 41.3546 5.06836L23.5142 5.58027L20.0527 44.6912C20.0527 44.6912 38.3776 44.4463 42.314 44.3485C46.2503 44.2506 46.997 43.0767 46.7481 41.5112Z" fill="#BDB5AD"/>
<path d="M4.71419 13.0202C4.71419 13.0202 4.40875 44.4614 4.40875 45.0805C4.40875 45.7001 4.20518 46.6836 5.93583 46.793C7.6665 46.9023 43.2869 45.7121 43.2869 45.7121L42.7213 7.33672L4.44271 7.26392L4.71419 13.0202Z" fill="#DFD7CF"/>
<path d="M43.2868 45.7121L42.8569 6.69092" stroke="black" stroke-width="0.0980169" stroke-linecap="round" stroke-linejoin="round"/>
<path d="M3.08544 10.3252C3.08544 10.3252 1.59222 37.627 0.913574 42.5346L33.2648 43.1064L40.7758 35.3876L42.7214 12.4216L3.08544 10.3252Z" fill="#F1E8E1"/>
<path d="M40.7755 35.3876L35.4503 35.2516C34.2745 35.2217 33.3041 36.2132 33.297 37.4517L33.2646 43.1064" fill="#C1B2A9"/>
<path d="M0.754883 42.4872L33.1401 43.0946L40.8037 35.5604L42.7211 12.4219" stroke="black" stroke-width="0.0970747" stroke-linecap="round" stroke-linejoin="round"/>
<path d="M6.30908 21.9272L38.3775 22.2132" stroke="black" stroke-width="0.194149" stroke-miterlimit="10"/>
<path d="M6.30908 30.075L38.3775 30.3609" stroke="black" stroke-width="0.194149" stroke-miterlimit="10"/>
<path d="M10.2793 17.2817L8.92188 38.1512" stroke="black" stroke-width="0.194149" stroke-miterlimit="10"/>
<path d="M20.7315 17.2817L19.374 38.1512" stroke="black" stroke-width="0.194149" stroke-miterlimit="10"/>
<path d="M31.1831 17.2817L29.8257 38.1512" stroke="black" stroke-width="0.194149" stroke-miterlimit="10"/>
<path d="M2.65527 7.12089V12.8296H42.8568V6.54818C42.8568 5.73023 42.184 5.06743 41.3544 5.06836L4.6933 5.10912C3.56738 5.11032 2.65527 6.01072 2.65527 7.12089Z" fill="#ECA38D" stroke="black" stroke-width="0.0939342" stroke-miterlimit="10"/>
<mask id="mask1_3726_3020" style="mask-type:luminance" maskUnits="userSpaceOnUse" x="-28" y="-25" width="103" height="91">
<path d="M74.8318 -24.311H-27.3335V65.1596H74.8318V-24.311Z" fill="white"/>
<path d="M40.4461 5.26392H5.53955V11.27H40.4461V5.26392Z" fill="black"/>
</mask>
<g mask="url(#mask1_3726_3020)">
<path d="M9.18227 9.17459C9.12391 9.17459 9.06462 9.16779 9.0056 9.15348C7.24813 8.72975 6.35693 7.52775 6.35693 5.58108C6.35693 3.32089 7.60204 1.68042 9.31764 1.68042C11.0184 1.68042 12.0748 3.09149 12.0748 5.36304C12.0748 5.6845 11.7773 5.94504 11.4103 5.94504C11.0432 5.94504 10.7457 5.6845 10.7457 5.36304C10.7457 4.14542 10.3705 2.84437 9.31764 2.84437C8.40271 2.84437 7.68604 4.04659 7.68604 5.58108C7.68604 7.39544 8.57978 7.84348 9.35836 8.03126C9.71213 8.1165 9.92005 8.43686 9.82262 8.74695C9.74147 9.00504 9.47391 9.17459 9.18227 9.17459Z" fill="#21211F"/>
<path d="M18.2092 9.17459C18.1508 9.17459 18.0915 9.16779 18.0325 9.15348C16.275 8.72975 15.3838 7.52775 15.3838 5.58108C15.3838 3.32089 16.6289 1.68042 18.3445 1.68042C20.0453 1.68042 21.1017 3.09149 21.1017 5.36304C21.1017 5.6845 20.8041 5.94504 20.4371 5.94504C20.0701 5.94504 19.7725 5.6845 19.7725 5.36304C19.7725 4.14542 19.3974 2.84437 18.3445 2.84437C17.4296 2.84437 16.7129 4.04659 16.7129 5.58108C16.7129 7.39544 17.6066 7.84348 18.3852 8.03126C18.739 8.1165 18.9469 8.43686 18.8495 8.74695C18.7683 9.00504 18.5008 9.17459 18.2092 9.17459Z" fill="#21211F"/>
<path d="M27.236 9.17459C27.1776 9.17459 27.1183 9.16779 27.0593 9.15348C25.3018 8.72975 24.4106 7.52775 24.4106 5.58108C24.4106 3.32089 25.6557 1.68042 27.3714 1.68042C29.0721 1.68042 30.1285 3.09149 30.1285 5.36304C30.1285 5.6845 29.831 5.94504 29.4639 5.94504C29.0969 5.94504 28.7994 5.6845 28.7994 5.36304C28.7994 4.14542 28.4242 2.84437 27.3714 2.84437C26.4564 2.84437 25.7397 4.04659 25.7397 5.58108C25.7397 7.39544 26.6335 7.84348 27.412 8.03126C27.7658 8.1165 27.9738 8.43686 27.8763 8.74695C27.7951 9.00504 27.5276 9.17459 27.236 9.17459Z" fill="#21211F"/>
<path d="M36.2623 9.17459C36.204 9.17459 36.1447 9.16779 36.0856 9.15348C34.3282 8.72975 33.437 7.52775 33.437 5.58108C33.437 3.32089 34.6821 1.68042 36.3977 1.68042C38.0985 1.68042 39.1549 3.09149 39.1549 5.36304C39.1549 5.6845 38.8574 5.94504 38.4903 5.94504C38.1233 5.94504 37.8258 5.6845 37.8258 5.36304C37.8258 4.14542 37.4506 2.84437 36.3977 2.84437C35.4828 2.84437 34.7661 4.04659 34.7661 5.58108C34.7661 7.39544 35.6599 7.84348 36.4384 8.03126C36.7922 8.1165 37.0001 8.43686 36.9027 8.74695C36.8215 9.00504 36.554 9.17459 36.2623 9.17459Z" fill="#21211F"/>
</g>
<path d="M9.82298 8.02884C9.74164 8.24004 9.47391 8.37924 9.18253 8.37924C9.12391 8.37924 9.06431 8.37381 9.00564 8.36226C7.24804 8.01457 6.35693 7.02919 6.35693 5.43328C6.35693 5.31919 6.36164 5.2071 6.37111 5.09777L7.70307 5.09644C7.69169 5.20577 7.686 5.31848 7.686 5.43328C7.686 6.92119 8.57996 7.2879 9.35849 7.44208C9.71231 7.51204 9.9204 7.77484 9.82298 8.02884Z" fill="#21211F"/>
<path d="M18.3849 7.44204C17.6063 7.28787 16.7124 6.92116 16.7124 5.43324C16.7124 5.31573 16.719 5.20098 16.7304 5.0896L15.3975 5.09027C15.388 5.20231 15.3833 5.31644 15.3833 5.43324C15.3833 7.02916 16.2744 8.01453 18.032 8.36222C18.0916 8.37378 18.1503 8.3792 18.2089 8.3792C18.5003 8.3792 18.768 8.24 18.8493 8.0288C18.9468 7.7748 18.7387 7.512 18.3849 7.44204Z" fill="#21211F"/>
<path d="M27.8762 8.0287C27.7948 8.2399 27.5281 8.3791 27.2358 8.3791C27.1771 8.3791 27.1185 8.37368 27.0589 8.36212C25.3022 8.01443 24.4102 7.02905 24.4102 5.43314C24.4102 5.3143 24.4149 5.1975 24.4253 5.0827L25.7582 5.08203C25.7458 5.19612 25.7392 5.31363 25.7392 5.43314C25.7392 6.92105 26.6332 7.28776 27.4117 7.44194C27.7655 7.5119 27.9736 7.7747 27.8762 8.0287Z" fill="#21211F"/>
<path d="M36.4382 7.44208C35.6596 7.28795 34.7666 6.9212 34.7666 5.43328C34.7666 5.31102 34.7732 5.19151 34.7865 5.07471L33.4536 5.07537C33.4432 5.19217 33.4375 5.31173 33.4375 5.43328C33.4375 7.0292 34.3286 8.01457 36.0863 8.36231C36.1449 8.37382 36.2045 8.37929 36.2622 8.37929C36.5545 8.37929 36.8222 8.24004 36.9027 8.02884C37.0001 7.77484 36.7929 7.51204 36.4382 7.44208Z" fill="#21211F"/>
<path d="M29.5948 23.115C29.5948 20.4481 27.5144 18.1365 24.948 18.1365C23.0717 18.1365 21.4562 19.4425 20.7226 21.1063H20.7217C19.9881 19.4425 18.3726 18.1365 16.4963 18.1365C15.1436 18.1365 13.926 18.7787 13.0768 19.7766C12.3148 20.672 11.8496 21.8537 11.8496 23.115C11.8496 23.1814 11.5914 26.4811 14.8523 29.94C16.3349 31.5462 17.9931 33.0724 20.7221 35.4708C23.4513 33.0724 25.1094 31.5462 26.592 29.94C29.8529 26.4811 29.5948 23.1814 29.5948 23.115Z" fill="#E5836B"/>
</g>
</svg>
