<svg fill="none" height="100%" width="100%" viewBox="0 0 1080 1080" xmlns:xlink="http://www.w3.org/1999/xlink" xmlns="http://www.w3.org/2000/svg"><defs><mask id="i0"><rect fill="white" height="100%" width="100%" /><path fill="black" d="M716.5,357C716.5,357,347.5,357,347.5,357C347.5,357,347.5,429.5,347.5,429.5C347.5,429.5,716.5,429.5,716.5,429.5C716.5,429.5,716.5,357,716.5,357Z" /></mask></defs><g id="i1"><g transform="translate(540,605)"><animateTransform repeatCount="indefinite" type="translate" attributeName="transform" dur="1s" begin="0s" calcMode="spline" values="540 605; 540 605; 540 560; 540 605" keyTimes="0; 1; 1; 1" keySplines="0 0 1 1; 0.333 0 0.667 1; 0.333 0 0.667 1" fill="freeze" /><g transform="rotate(0)"><animateTransform repeatCount="indefinite" type="rotate" attributeName="transform" dur="1s" begin="0s" calcMode="spline" values="0; 0; -5; 0; 5; 0" keyTimes="0; 1; 1; 1; 1; 1" keySplines="0 0 1 1; 0.167 0.167 0.667 1; 0.333 0 0.833 0.839; 0.167 0.172 0.667 1; 0.333 0 0.833 0.833" fill="freeze" /><g transform="scale(0.961,1.039)"><animateTransform repeatCount="indefinite" type="scale" attributeName="transform" dur="1s" begin="0s" calcMode="spline" values="1 1; 1 1; 0.95 1.05; 1 1; 0.95 1.05; 1 1" keyTimes="0; 1; 1; 1; 1; 1" keySplines="0 0 1 1; 0.333 0 0.667 1; 0.333 0 0.667 1; 0.333 0 0.667 1; 0.333 0 0.667 1" fill="freeze" /><g transform="translate(-50,-50)"><g id="i2"><g transform="translate(10.921,-134.538)"><g transform="scale(1,1)"><animateTransform repeatCount="indefinite" type="scale" attributeName="transform" dur="1s" begin="0s" calcMode="spline" values="1 1; 1 1; 1 0.9; 1 1; 1 0.9; 1 1" keyTimes="0; 1; 1; 1; 1; 1" keySplines="0 0 1 1; 0.333 0 0.667 1; 0.333 0 0.667 1; 0.333 0 0.667 1; 0.333 0 0.667 1" fill="freeze" /><g transform="translate(141.328,193.705)"><g id="i3"><path fill="#bdb5ad" d="M140.872,162.615C138.241,147.309,110.061,-130.244,105.478,-160.719C100.695,-192.527,93.9,-192.987,83.856,-193.705C83.856,-193.705,-104.737,-188.7,-104.737,-188.7C-104.737,-188.7,-141.328,193.705,-141.328,193.705C-141.328,193.705,52.386,191.313,93.998,190.356C135.611,189.399,143.503,177.921,140.872,162.615Z" /></g></g></g></g></g></g></g></g></g></g><g id="i1"><g transform="translate(540,605)"><animateTransform repeatCount="indefinite" type="translate" attributeName="transform" dur="1s" begin="0s" calcMode="spline" values="540 605; 540 605; 540 560; 540 605" keyTimes="0; 1; 1; 1" keySplines="0 0 1 1; 0.333 0 0.667 1; 0.333 0 0.667 1" fill="freeze" /><g transform="rotate(0)"><animateTransform repeatCount="indefinite" type="rotate" attributeName="transform" dur="1s" begin="0s" calcMode="spline" values="0; 0; -5; 0; 5; 0" keyTimes="0; 1; 1; 1; 1; 1" keySplines="0 0 1 1; 0.167 0.167 0.667 1; 0.333 0 0.833 0.839; 0.167 0.172 0.667 1; 0.333 0 0.833 0.833" fill="freeze" /><g transform="scale(0.961,1.039)"><animateTransform repeatCount="indefinite" type="scale" attributeName="transform" dur="1s" begin="0s" calcMode="spline" values="1 1; 1 1; 0.95 1.05; 1 1; 0.95 1.05; 1 1" keyTimes="0; 1; 1; 1; 1; 1" keySplines="0 0 1 1; 0.333 0 0.667 1; 0.333 0 0.667 1; 0.333 0 0.667 1; 0.333 0 0.667 1" fill="freeze" /><g transform="translate(-50,-50)"><g id="i4"><g transform="translate(51,-118.674)"><g transform="scale(1,0.993)"><animateTransform repeatCount="indefinite" type="scale" attributeName="transform" dur="1s" begin="0s" calcMode="spline" values="1 1; 1 1; 1 0.9; 1 1; 1 0.9; 1 1" keyTimes="0; 1; 1; 1; 1; 1" keySplines="0 0 1 1; 0.333 0 0.667 1; 0.333 0 0.667 1; 0.333 0 0.667 1; 0.333 0 0.667 1" fill="freeze" /><g transform="translate(-541,-371.326)"><g id="i5" transform="matrix(1,0,0,1,541,571.613)"><path fill="#dfd7cf" d="M-202.224,-137.966C-202.224,-137.966,-205.453,171.617,-205.453,177.715C-205.453,183.813,-207.605,193.499,-189.31,194.575C-171.015,195.651,205.531,183.933,205.531,183.933C205.531,183.933,199.552,-193.928,199.552,-193.928C199.552,-193.928,-205.094,-194.645,-205.094,-194.645C-205.094,-194.645,-202.224,-137.966,-202.224,-137.966Z" /></g><g id="i3" transform="matrix(1,0,0,1,744.259,563.436)"><path stroke-linejoin="round" stroke-linecap="round" stroke-width="1" stroke="#000000" d="M2.272,192.11C2.272,192.11,-2.272,-192.11,-2.272,-192.11" /></g></g></g></g></g></g></g></g></g></g><g id="i1"><g transform="translate(540,605)"><animateTransform repeatCount="indefinite" type="translate" attributeName="transform" dur="1s" begin="0s" calcMode="spline" values="540 605; 540 605; 540 560; 540 605" keyTimes="0; 1; 1; 1" keySplines="0 0 1 1; 0.333 0 0.667 1; 0.333 0 0.667 1" fill="freeze" /><g transform="rotate(0)"><animateTransform repeatCount="indefinite" type="rotate" attributeName="transform" dur="1s" begin="0s" calcMode="spline" values="0; 0; -5; 0; 5; 0" keyTimes="0; 1; 1; 1; 1; 1" keySplines="0 0 1 1; 0.167 0.167 0.667 1; 0.333 0 0.833 0.839; 0.167 0.172 0.667 1; 0.333 0 0.833 0.833" fill="freeze" /><g transform="scale(0.961,1.039)"><animateTransform repeatCount="indefinite" type="scale" attributeName="transform" dur="1s" begin="0s" calcMode="spline" values="1 1; 1 1; 0.95 1.05; 1 1; 0.95 1.05; 1 1" keyTimes="0; 1; 1; 1; 1; 1" keySplines="0 0 1 1; 0.333 0 0.667 1; 0.333 0 0.667 1; 0.333 0 0.667 1; 0.333 0 0.667 1" fill="freeze" /><g transform="translate(-50,-50)"><g id="i6"><g transform="translate(28.738,-83.138)"><g transform="scale(1,0.974)"><animateTransform repeatCount="indefinite" type="scale" attributeName="transform" dur="1s" begin="0s" calcMode="spline" values="1 1; 1 1; 1 0.9; 1 1; 1 0.9; 1 1" keyTimes="0; 1; 1; 1; 1; 1" keySplines="0 0 1 1; 0.333 0 0.667 1; 0.333 0 0.667 1; 0.333 0 0.667 1; 0.333 0 0.667 1" fill="freeze" /><g transform="translate(-518.738,-406.862)"><g id="i5" transform="matrix(1,0,0,1,0,0)"><g id="i7" transform="matrix(1,0,0,1,519.575,571.399)"><path fill="#f1e8e1" d="M-198.018,-164.537C-198.018,-164.537,-213.803,109.532,-220.977,158.797C-220.977,158.797,121.011,164.537,121.011,164.537C121.011,164.537,200.41,87.052,200.41,87.052C200.41,87.052,220.977,-143.492,220.977,-143.492C220.977,-143.492,-198.018,-164.537,-198.018,-164.537Z" /></g><g id="i8" transform="matrix(1,0,0,1,680.285,696.507)"><path fill="#c1b2a9" d="M39.699,-38.057C39.699,-38.057,-16.594,-39.422,-16.594,-39.422C-29.024,-39.723,-39.282,-29.77,-39.357,-17.337C-39.357,-17.337,-39.699,39.428,-39.699,39.428" /></g><g id="i9" transform="matrix(1,0,0,1,298.598,730.196)"><path stroke-miterlimit="10" stroke-width="1" stroke="#000000" d="" /></g><g id="i5" transform="matrix(1,0,0,1,298.598,730.196)"><path stroke-miterlimit="10" stroke-width="1" stroke="#000000" d="" /></g><g id="i3" transform="matrix(1,0,0,1,518.738,581.862)"><path stroke-linejoin="round" stroke-linecap="round" stroke-width="1" stroke="#000000" d="M-221.814,147.856C-221.814,147.856,120.533,153.954,120.533,153.954C120.533,153.954,201.546,78.322,201.546,78.322C201.546,78.322,221.814,-153.954,221.814,-153.954" /></g></g><g><g transform="translate(525.135,524.764)"><g transform="scale(1,1)"><animateTransform repeatCount="indefinite" type="scale" attributeName="transform" dur="1s" begin="0s" calcMode="spline" values="1 1; 1 1; 1.07 1.07; 1 1" keyTimes="0; 1; 1; 1" keySplines="0 0 1 1; 0.333 0 0.667 1; 0.333 0 0.667 1" fill="freeze" /><g id="i3" transform="translate(-525.135,-524.764)"><g id="i8" transform="matrix(1,0,0,1,525.135,524.764)"><path stroke-miterlimit="10" stroke-width="2" stroke="#000000" d="M-169.499,-1.435C-169.499,-1.435,169.499,1.435,169.499,1.435" /></g><g id="i9" transform="matrix(1,0,0,1,525.135,606.554)"><path stroke-miterlimit="10" stroke-width="2" stroke="#000000" d="M-169.499,-1.435C-169.499,-1.435,169.499,1.435,169.499,1.435" /></g><g id="i10" transform="matrix(1,0,0,1,390.432,581.443)"><path stroke-miterlimit="10" stroke-width="2" stroke="#000000" d="M7.175,-104.749C7.175,-104.749,-7.175,104.749,-7.175,104.749" /></g><g id="i5" transform="matrix(1,0,0,1,500.921,581.443)"><path stroke-miterlimit="10" stroke-width="2" stroke="#000000" d="M7.175,-104.749C7.175,-104.749,-7.175,104.749,-7.175,104.749" /></g><g id="i3" transform="matrix(1,0,0,1,611.409,581.443)"><path stroke-miterlimit="10" stroke-width="2" stroke="#000000" d="M7.175,-104.749C7.175,-104.749,-7.175,104.749,-7.175,104.749" /></g></g></g></g></g></g></g></g></g></g></g></g></g></g><g id="i1"><g transform="translate(540,605)"><animateTransform repeatCount="indefinite" type="translate" attributeName="transform" dur="1s" begin="0s" calcMode="spline" values="540 605; 540 605; 540 560; 540 605" keyTimes="0; 1; 1; 1" keySplines="0 0 1 1; 0.333 0 0.667 1; 0.333 0 0.667 1" fill="freeze" /><g transform="rotate(0)"><animateTransform repeatCount="indefinite" type="rotate" attributeName="transform" dur="1s" begin="0s" calcMode="spline" values="0; 0; -5; 0; 5; 0" keyTimes="0; 1; 1; 1; 1; 1" keySplines="0 0 1 1; 0.167 0.167 0.667 1; 0.333 0 0.833 0.839; 0.167 0.172 0.667 1; 0.333 0 0.833 0.833" fill="freeze" /><g transform="scale(0.961,1.039)"><animateTransform repeatCount="indefinite" type="scale" attributeName="transform" dur="1s" begin="0s" calcMode="spline" values="1 1; 1 1; 0.95 1.05; 1 1; 0.95 1.05; 1 1" keyTimes="0; 1; 1; 1; 1; 1" keySplines="0 0 1 1; 0.333 0 0.667 1; 0.333 0 0.667 1; 0.333 0 0.667 1; 0.333 0 0.667 1" fill="freeze" /><g transform="translate(-50,-50)"><g id="i11"><g transform="translate(39.5,-134.538)"><g transform="scale(1,0.912)"><animateTransform repeatCount="indefinite" type="scale" attributeName="transform" dur="1s" begin="0s" calcMode="spline" values="1 1; 1 1; 1 0.84; 1 1; 1 0.84; 1 1" keyTimes="0; 1; 1; 1; 1; 1" keySplines="0 0 1 1; 0.333 0 0.667 1; 0.333 0 0.667 1; 0.333 0 0.667 1; 0.333 0 0.667 1" fill="freeze" /><g transform="translate(0,41.604)"><g id="i3"><path stroke-miterlimit="10" stroke-width="1" stroke="#000000" fill="#eca38d" d="M-212.487,-19.599C-212.487,-19.599,-212.487,41.604,-212.487,41.604C-212.487,41.604,212.487,41.604,212.487,41.604C212.487,41.604,212.487,-25.739,212.487,-25.739C212.487,-34.508,205.374,-41.614,196.605,-41.604C196.605,-41.604,-190.943,-41.167,-190.943,-41.167C-202.845,-41.154,-212.487,-31.501,-212.487,-19.599Z" /></g></g></g></g></g></g></g></g></g></g><g id="i1"><g transform="translate(540,605)"><animateTransform repeatCount="indefinite" type="translate" attributeName="transform" dur="1s" begin="0s" calcMode="spline" values="540 605; 540 605; 540 560; 540 605" keyTimes="0; 1; 1; 1" keySplines="0 0 1 1; 0.333 0 0.667 1; 0.333 0 0.667 1" fill="freeze" /><g transform="rotate(0)"><animateTransform repeatCount="indefinite" type="rotate" attributeName="transform" dur="1s" begin="0s" calcMode="spline" values="0; 0; -5; 0; 5; 0" keyTimes="0; 1; 1; 1; 1; 1" keySplines="0 0 1 1; 0.167 0.167 0.667 1; 0.333 0 0.833 0.839; 0.167 0.172 0.667 1; 0.333 0 0.833 0.833" fill="freeze" /><g transform="scale(0.961,1.039)"><animateTransform repeatCount="indefinite" type="scale" attributeName="transform" dur="1s" begin="0s" calcMode="spline" values="1 1; 1 1; 0.95 1.05; 1 1; 0.95 1.05; 1 1" keyTimes="0; 1; 1; 1; 1; 1" keySplines="0 0 1 1; 0.333 0 0.667 1; 0.333 0 0.667 1; 0.333 0 0.667 1; 0.333 0 0.667 1" fill="freeze" /><g transform="translate(-50,-50)"><g id="i12"><g transform="translate(39.5,-131.027)"><g transform="scale(1,0.81)"><animateTransform repeatCount="indefinite" type="scale" attributeName="transform" dur="1s" begin="0s" calcMode="spline" values="1 1; 1 1; 1 0.8; 1 1; 1 0.8; 1 1" keyTimes="0; 1; 1; 1; 1; 1" keySplines="0 0 1 1; 0.333 0 0.667 1; 0.333 0 0.667 1; 0.333 0 0.667 1; 0.333 0 0.667 1" fill="freeze" /><g transform="translate(-529.5,-358.973)"><g mask="url(#i0)" id="i13"><g id="i9" transform="matrix(1,0,0,1,386.367,358.973)"><g id="i3"><path fill="#21211f" d="M-0.355,45.231C-0.972,45.231,-1.599,45.149,-2.223,44.976C-20.801,39.861,-30.222,25.352,-30.222,1.854C-30.222,-25.429,-17.06,-45.231,1.076,-45.231C19.055,-45.231,30.222,-28.198,30.222,-0.778C30.222,3.102,27.077,6.247,23.197,6.247C19.317,6.247,16.172,3.102,16.172,-0.778C16.172,-15.476,12.206,-31.181,1.076,-31.181C-8.596,-31.181,-16.172,-16.669,-16.172,1.854C-16.172,23.755,-6.724,29.163,1.506,31.43C5.246,32.459,7.444,36.326,6.414,40.069C5.556,43.184,2.728,45.231,-0.355,45.231Z" /></g></g><g id="i10" transform="matrix(1,0,0,1,481.789,358.973)"><g id="i3"><path fill="#21211f" d="M-0.355,45.231C-0.972,45.231,-1.599,45.149,-2.223,44.976C-20.801,39.861,-30.222,25.352,-30.222,1.854C-30.222,-25.429,-17.06,-45.231,1.076,-45.231C19.055,-45.231,30.222,-28.198,30.222,-0.778C30.222,3.102,27.077,6.247,23.197,6.247C19.317,6.247,16.172,3.102,16.172,-0.778C16.172,-15.476,12.206,-31.181,1.076,-31.181C-8.596,-31.181,-16.172,-16.669,-16.172,1.854C-16.172,23.755,-6.724,29.163,1.506,31.43C5.246,32.459,7.444,36.326,6.414,40.069C5.556,43.184,2.728,45.231,-0.355,45.231Z" /></g></g><g id="i5" transform="matrix(1,0,0,1,577.211,358.973)"><g id="i3"><path fill="#21211f" d="M-0.355,45.231C-0.972,45.231,-1.599,45.149,-2.223,44.976C-20.801,39.861,-30.222,25.352,-30.222,1.854C-30.222,-25.429,-17.06,-45.231,1.076,-45.231C19.055,-45.231,30.222,-28.198,30.222,-0.778C30.222,3.102,27.077,6.247,23.197,6.247C19.317,6.247,16.172,3.102,16.172,-0.778C16.172,-15.476,12.206,-31.181,1.076,-31.181C-8.596,-31.181,-16.172,-16.669,-16.172,1.854C-16.172,23.755,-6.724,29.163,1.506,31.43C5.246,32.459,7.444,36.326,6.414,40.069C5.556,43.184,2.728,45.231,-0.355,45.231Z" /></g></g><g id="i3" transform="matrix(1,0,0,1,672.632,358.973)"><g id="i3"><path fill="#21211f" d="M-0.355,45.231C-0.972,45.231,-1.599,45.149,-2.223,44.976C-20.801,39.861,-30.222,25.352,-30.222,1.854C-30.222,-25.429,-17.06,-45.231,1.076,-45.231C19.055,-45.231,30.222,-28.198,30.222,-0.778C30.222,3.102,27.077,6.247,23.197,6.247C19.317,6.247,16.172,3.102,16.172,-0.778C16.172,-15.476,12.206,-31.181,1.076,-31.181C-8.596,-31.181,-16.172,-16.669,-16.172,1.854C-16.172,23.755,-6.724,29.163,1.506,31.43C5.246,32.459,7.444,36.326,6.414,40.069C5.556,43.184,2.728,45.231,-0.355,45.231Z" /></g></g></g></g></g></g></g></g></g></g></g></g><g id="i1"><g transform="translate(540,605)"><animateTransform repeatCount="indefinite" type="translate" attributeName="transform" dur="1s" begin="0s" calcMode="spline" values="540 605; 540 605; 540 560; 540 605" keyTimes="0; 1; 1; 1" keySplines="0 0 1 1; 0.333 0 0.667 1; 0.333 0 0.667 1" fill="freeze" /><g transform="rotate(0)"><animateTransform repeatCount="indefinite" type="rotate" attributeName="transform" dur="1s" begin="0s" calcMode="spline" values="0; 0; -5; 0; 5; 0" keyTimes="0; 1; 1; 1; 1; 1" keySplines="0 0 1 1; 0.167 0.167 0.667 1; 0.333 0 0.833 0.839; 0.167 0.172 0.667 1; 0.333 0 0.833 0.833" fill="freeze" /><g transform="scale(0.961,1.039)"><animateTransform repeatCount="indefinite" type="scale" attributeName="transform" dur="1s" begin="0s" calcMode="spline" values="1 1; 1 1; 0.95 1.05; 1 1; 0.95 1.05; 1 1" keyTimes="0; 1; 1; 1; 1; 1" keySplines="0 0 1 1; 0.333 0 0.667 1; 0.333 0 0.667 1; 0.333 0 0.667 1; 0.333 0 0.667 1" fill="freeze" /><g transform="translate(-50,-50)"><g id="i14"><g transform="translate(39.498,-134.509)"><g transform="scale(1,0.664)"><animateTransform repeatCount="indefinite" type="scale" attributeName="transform" dur="1s" begin="0s" calcMode="spline" values="1 1; 1 1; 1 0.66; 1 1; 1 0.66; 1 1" keyTimes="0; 1; 1; 1; 1; 1" keySplines="0 0 1 1; 0.333 0 0.667 1; 0.333 0 0.667 1; 0.333 0 0.667 1; 0.333 0 0.667 1" fill="freeze" /><g transform="translate(-529.498,-355.491)"><g id="i9" transform="matrix(1,0,0,1,374.59,380.031)"><path fill="#21211f" d="M18.193,19.01C17.333,22.12,14.503,24.17,11.423,24.17C10.803,24.17,10.173,24.09,9.553,23.92C-9.027,18.8,-18.447,4.29,-18.447,-19.21C-18.447,-20.89,-18.397,-22.54,-18.297,-24.15C-18.297,-24.15,-4.217,-24.17,-4.217,-24.17C-4.337,-22.56,-4.397,-20.9,-4.397,-19.21C-4.397,2.7,5.053,8.1,13.283,10.37C17.023,11.4,19.223,15.27,18.193,19.01Z" /></g><g id="i10" transform="matrix(1,0,0,1,470.01,379.981)"><path fill="#21211f" d="M13.283,10.42C5.053,8.15,-4.397,2.75,-4.397,-19.16C-4.397,-20.89,-4.327,-22.58,-4.207,-24.22C-4.207,-24.22,-18.297,-24.21,-18.297,-24.21C-18.397,-22.56,-18.447,-20.88,-18.447,-19.16C-18.447,4.34,-9.027,18.85,9.553,23.97C10.183,24.14,10.803,24.22,11.423,24.22C14.503,24.22,17.333,22.17,18.193,19.06C19.223,15.32,17.023,11.45,13.283,10.42Z" /></g><g id="i5" transform="matrix(1,0,0,1,565.43,379.926)"><path fill="#21211f" d="M18.193,19.115C17.333,22.225,14.513,24.275,11.423,24.275C10.803,24.275,10.183,24.195,9.553,24.025C-9.017,18.905,-18.447,4.395,-18.447,-19.105C-18.447,-20.855,-18.397,-22.575,-18.287,-24.265C-18.287,-24.265,-4.197,-24.275,-4.197,-24.275C-4.327,-22.595,-4.397,-20.865,-4.397,-19.105C-4.397,2.805,5.053,8.205,13.283,10.475C17.023,11.505,19.223,15.375,18.193,19.115Z" /></g><g id="i3" transform="matrix(1,0,0,1,0,0)"><g id="i5" transform="matrix(1,0,0,1,660.856,379.871)"><path fill="#21211f" d="M13.278,10.53C5.048,8.26,-4.392,2.86,-4.392,-19.05C-4.392,-20.85,-4.322,-22.61,-4.182,-24.33C-4.182,-24.33,-18.272,-24.32,-18.272,-24.32C-18.382,-22.6,-18.442,-20.84,-18.442,-19.05C-18.442,4.45,-9.022,18.96,9.558,24.08C10.178,24.25,10.808,24.33,11.418,24.33C14.508,24.33,17.338,22.28,18.188,19.17C19.218,15.43,17.028,11.56,13.278,10.53Z" /></g></g></g></g></g></g></g></g></g></g></g><g id="i1"><g transform="translate(540,605)"><animateTransform repeatCount="indefinite" type="translate" attributeName="transform" dur="1s" begin="0s" calcMode="spline" values="540 605; 540 605; 540 560; 540 605" keyTimes="0; 1; 1; 1" keySplines="0 0 1 1; 0.333 0 0.667 1; 0.333 0 0.667 1" fill="freeze" /><g transform="rotate(0)"><animateTransform repeatCount="indefinite" type="rotate" attributeName="transform" dur="1s" begin="0s" calcMode="spline" values="0; 0; -5; 0; 5; 0" keyTimes="0; 1; 1; 1; 1; 1" keySplines="0 0 1 1; 0.167 0.167 0.667 1; 0.333 0 0.833 0.839; 0.167 0.172 0.667 1; 0.333 0 0.833 0.833" fill="freeze" /><g transform="scale(0.961,1.039)"><animateTransform repeatCount="indefinite" type="scale" attributeName="transform" dur="1s" begin="0s" calcMode="spline" values="1 1; 1 1; 0.95 1.05; 1 1; 0.95 1.05; 1 1" keyTimes="0; 1; 1; 1; 1; 1" keySplines="0 0 1 1; 0.333 0 0.667 1; 0.333 0 0.667 1; 0.333 0 0.667 1; 0.333 0 0.667 1" fill="freeze" /><g transform="translate(-50,-50)"><g id="i15"><g transform="translate(17.999,77.978)"><g transform="scale(1,1)"><animateTransform repeatCount="indefinite" type="scale" attributeName="transform" dur="1s" begin="0s" calcMode="spline" values="1 1; 1 1; 0.93 0.93; 1 1; 0.93 0.93; 1 1" keyTimes="0; 1; 1; 1; 1; 1" keySplines="0 0 1 1; 0.333 0 0.667 1; 0.333 0 0.667 1; 0.333 0 0.667 1; 0.333 0 0.667 1" fill="freeze" /><g transform="translate(0,0)"><g id="i3"><path fill="#e5836b" d="M93.793,-36.066C93.793,-62.141,71.801,-84.743,44.672,-84.743C24.837,-84.743,7.76,-71.973,0.005,-55.706C0.005,-55.706,-0.005,-55.706,-0.005,-55.706C-7.76,-71.973,-24.837,-84.743,-44.672,-84.743C-58.971,-84.743,-71.843,-78.464,-80.82,-68.707C-88.875,-59.952,-93.793,-48.398,-93.793,-36.066C-93.793,-35.416,-96.522,-3.153,-62.051,30.666C-46.378,46.37,-28.849,61.293,0,84.743C28.85,61.293,46.378,46.37,62.051,30.666C96.522,-3.153,93.793,-35.416,93.793,-36.066Z" /></g></g></g></g></g></g></g></g></g></g><g opacity="0" id="i1"><g transform="translate(540,605)"><animateTransform repeatCount="indefinite" type="translate" attributeName="transform" dur="1s" begin="0s" calcMode="spline" values="540 605; 540 605; 540 560; 540 605" keyTimes="0; 1; 1; 1" keySplines="0 0 1 1; 0.333 0 0.667 1; 0.333 0 0.667 1" fill="freeze" /><g transform="rotate(0)"><animateTransform repeatCount="indefinite" type="rotate" attributeName="transform" dur="1s" begin="0s" calcMode="spline" values="0; 0; -5; 0; 5; 0" keyTimes="0; 1; 1; 1; 1; 1" keySplines="0 0 1 1; 0.167 0.167 0.667 1; 0.333 0 0.833 0.839; 0.167 0.172 0.667 1; 0.333 0 0.833 0.833" fill="freeze" /><g transform="scale(0.961,1.039)"><animateTransform repeatCount="indefinite" type="scale" attributeName="transform" dur="1s" begin="0s" calcMode="spline" values="1 1; 1 1; 0.95 1.05; 1 1; 0.95 1.05; 1 1" keyTimes="0; 1; 1; 1; 1; 1" keySplines="0 0 1 1; 0.333 0 0.667 1; 0.333 0 0.667 1; 0.333 0 0.667 1; 0.333 0 0.667 1" fill="freeze" /><g transform="translate(-50,-50)" /></g></g></g></g></svg>