<svg width="1080" height="1080" viewBox="0 0 1080 1080" fill="none" xmlns="http://www.w3.org/2000/svg">
<g clip-path="url(#clip0_10232_1754)">
<path d="M1051.83 934.002C1046.23 898.78 986.253 260.074 976.498 189.945C966.318 116.748 951.855 115.689 930.477 114.037L529.066 125.555L451.184 1005.55C451.184 1005.55 863.494 1000.04 952.063 997.84C1040.63 995.637 1057.43 969.224 1051.83 934.002Z" fill="#BDB5AD"/>
<path d="M106.067 292.953C106.067 292.953 99.1947 1000.38 99.1947 1014.31C99.1947 1028.25 94.6143 1050.38 133.554 1052.84C172.494 1055.3 973.953 1028.52 973.953 1028.52L961.227 165.074L99.9588 163.436L106.067 292.953Z" fill="#DFD7CF"/>
<path d="M973.953 1028.52L964.281 150.543" stroke="black" stroke-width="2.20538" stroke-linecap="round" stroke-linejoin="round"/>
<path d="M69.4173 232.319C69.4173 232.319 35.8198 846.61 20.5503 957.031L748.454 969.897L917.45 796.224L961.226 279.489L69.4173 232.319Z" fill="#F1E8E1"/>
<path d="M917.448 796.222L797.631 793.162C771.175 792.488 749.341 814.796 749.182 842.663L748.454 969.895" fill="#C1B2A9"/>
<path d="M16.9868 955.96L745.654 969.628L918.086 800.108L961.226 279.491" stroke="black" stroke-width="2.18418" stroke-linecap="round" stroke-linejoin="round"/>
<path d="M141.952 493.365L863.492 499.798" stroke="black" stroke-width="4.36836" stroke-miterlimit="10"/>
<path d="M141.952 676.687L863.492 683.12" stroke="black" stroke-width="4.36836" stroke-miterlimit="10"/>
<path d="M231.285 388.839L200.742 858.402" stroke="black" stroke-width="4.36836" stroke-miterlimit="10"/>
<path d="M466.456 388.839L435.912 858.402" stroke="black" stroke-width="4.36836" stroke-miterlimit="10"/>
<path d="M701.623 388.839L671.08 858.402" stroke="black" stroke-width="4.36836" stroke-miterlimit="10"/>
<path d="M59.7454 160.219V288.665H964.28V147.333C964.28 128.929 949.141 114.016 930.476 114.037L105.601 114.954C80.2679 114.981 59.7454 135.24 59.7454 160.219Z" fill="#ECA38D" stroke="black" stroke-width="2.11352" stroke-miterlimit="10"/>
<mask id="mask0_10232_1754" style="mask-type:luminance" maskUnits="userSpaceOnUse" x="-615" y="-547" width="2299" height="2014">
<path d="M1683.72 -547H-615V1466.09H1683.72V-547Z" fill="white"/>
<path d="M910.033 118.439H124.636V253.577H910.033V118.439Z" fill="black"/>
</mask>
<g mask="url(#mask0_10232_1754)">
<path d="M206.606 206.426C205.293 206.426 203.959 206.273 202.631 205.951C163.088 196.417 143.036 169.372 143.036 125.572C143.036 74.7176 171.051 37.8071 209.652 37.8071C247.92 37.8071 271.688 69.5562 271.688 120.666C271.688 127.899 264.994 133.761 256.736 133.761C248.477 133.761 241.783 127.899 241.783 120.666C241.783 93.2697 233.342 63.996 209.652 63.996C189.066 63.996 172.941 91.046 172.941 125.572C172.941 166.395 193.05 176.476 210.568 180.701C218.528 182.619 223.206 189.827 221.014 196.804C219.188 202.611 213.168 206.426 206.606 206.426Z" fill="#21211F"/>
<path d="M409.708 206.426C408.394 206.426 407.06 206.273 405.732 205.951C366.189 196.417 346.137 169.372 346.137 125.572C346.137 74.7176 374.152 37.8071 412.753 37.8071C451.021 37.8071 474.789 69.5562 474.789 120.666C474.789 127.899 468.095 133.761 459.837 133.761C451.578 133.761 444.884 127.899 444.884 120.666C444.884 93.2697 436.443 63.996 412.753 63.996C392.167 63.996 376.042 91.046 376.042 125.572C376.042 166.395 396.151 176.476 413.669 180.701C421.629 182.619 426.307 189.827 424.115 196.804C422.289 202.611 416.27 206.426 409.708 206.426Z" fill="#21211F"/>
<path d="M612.808 206.426C611.495 206.426 610.16 206.273 608.832 205.951C569.29 196.417 549.238 169.372 549.238 125.572C549.238 74.7176 577.252 37.8071 615.854 37.8071C654.121 37.8071 677.889 69.5562 677.889 120.666C677.889 127.899 671.195 133.761 662.937 133.761C654.679 133.761 647.985 127.899 647.985 120.666C647.985 93.2697 639.543 63.996 615.854 63.996C595.267 63.996 579.142 91.046 579.142 125.572C579.142 166.395 599.252 176.476 616.769 180.701C624.729 182.619 629.408 189.827 627.215 196.804C625.389 202.611 619.37 206.426 612.808 206.426Z" fill="#21211F"/>
<path d="M815.906 206.426C814.593 206.426 813.258 206.273 811.93 205.951C772.388 196.417 752.336 169.372 752.336 125.572C752.336 74.7176 780.351 37.8071 818.952 37.8071C857.219 37.8071 880.988 69.5562 880.988 120.666C880.988 127.899 874.294 133.761 866.035 133.761C857.777 133.761 851.083 127.899 851.083 120.666C851.083 93.2697 842.642 63.996 818.952 63.996C798.366 63.996 782.241 91.046 782.241 125.572C782.241 166.395 802.35 176.476 819.867 180.701C827.828 182.619 832.506 189.827 830.314 196.804C828.488 202.611 822.468 206.426 815.906 206.426Z" fill="#21211F"/>
</g>
<path d="M221.018 180.648C219.188 185.4 213.164 188.532 206.608 188.532C205.289 188.532 203.948 188.41 202.628 188.15C163.082 180.327 143.032 158.156 143.032 122.248C143.032 119.681 143.138 117.159 143.351 114.699L173.32 114.669C173.064 117.129 172.936 119.665 172.936 122.248C172.936 155.726 193.05 163.977 210.567 167.446C218.528 169.02 223.21 174.933 221.018 180.648Z" fill="#21211F"/>
<path d="M413.664 167.446C396.147 163.977 376.033 155.726 376.033 122.248C376.033 119.604 376.182 117.022 376.438 114.516L346.448 114.531C346.235 117.052 346.129 119.62 346.129 122.248C346.129 158.156 366.179 180.327 405.725 188.15C407.066 188.41 408.386 188.532 409.705 188.532C416.261 188.532 422.285 185.4 424.115 180.648C426.307 174.933 421.625 169.02 413.664 167.446Z" fill="#21211F"/>
<path d="M627.211 180.648C625.38 185.4 619.378 188.532 612.801 188.532C611.482 188.532 610.162 188.41 608.821 188.15C569.296 180.327 549.225 158.156 549.225 122.248C549.225 119.574 549.331 116.946 549.565 114.363L579.555 114.348C579.278 116.915 579.129 119.559 579.129 122.248C579.129 155.726 599.243 163.977 616.76 167.446C624.721 169.02 629.403 174.933 627.211 180.648Z" fill="#21211F"/>
<path d="M819.859 167.446C802.342 163.978 782.249 155.726 782.249 122.248C782.249 119.497 782.398 116.808 782.696 114.18L752.706 114.195C752.472 116.823 752.344 119.513 752.344 122.248C752.344 158.156 772.394 180.327 811.941 188.151C813.261 188.41 814.602 188.533 815.9 188.533C822.477 188.533 828.5 185.4 830.31 180.648C832.502 174.933 827.841 169.02 819.859 167.446Z" fill="#21211F"/>
<path d="M665.883 520.085C665.883 460.081 619.074 408.069 561.331 408.069C519.114 408.069 482.766 437.455 466.26 474.889H466.239C449.733 437.455 413.385 408.069 371.167 408.069C340.733 408.069 313.335 422.518 294.228 444.971C277.084 465.118 266.616 491.706 266.616 520.085C266.616 521.58 260.807 595.824 334.177 673.649C367.536 709.787 404.846 744.128 466.249 798.091C527.655 744.128 564.962 709.787 598.322 673.649C671.691 595.824 665.883 521.58 665.883 520.085Z" fill="#E5836B"/>
</g>
<defs>
<clipPath id="clip0_10232_1754">
<rect width="1080" height="1080" fill="white"/>
</clipPath>
</defs>
</svg>
